<svg id="Grupo_30468" data-name="Grupo 30468" xmlns="http://www.w3.org/2000/svg" xmlns:xlink="http://www.w3.org/1999/xlink" width="83.25" height="90.589" viewBox="0 0 83.25 90.589">
  <defs>
    <clipPath id="clip-path">
      <path id="Trazado_28260" data-name="Trazado 28260" d="M333.839,236.47l-6.973,1.077a24.779,24.779,0,0,0-4.772-3.522,35.743,35.743,0,0,0-6.1-2.754l1.868-4.026c.348-.75-.423-1.52-1.721-1.721l-12.31-1.9c-1.3-.2-2.633.243-2.98.993l-1.871,4.031a50.942,50.942,0,0,0-14.849,2.294l-5.107-2.949a3.8,3.8,0,0,0-3.441,0l-9.012,5.2a1.048,1.048,0,0,0,0,1.986l5.107,2.949A13.012,13.012,0,0,0,267.7,246.7l-6.983,1.081c-1.3.2-2.069.97-1.721,1.721l3.3,7.108c.348.75,1.682,1.194,2.98.993l6.973-1.079a24.794,24.794,0,0,0,4.773,3.524,35.671,35.671,0,0,0,6.1,2.754l-1.868,4.026c-.348.749.423,1.52,1.721,1.721l12.31,1.9c1.3.2,2.633-.243,2.981-.993l1.871-4.031a51,51,0,0,0,14.848-2.294l5.107,2.949a3.8,3.8,0,0,0,3.441,0l9.013-5.2a1.05,1.05,0,0,0,0-1.988l-5.107-2.947a13.018,13.018,0,0,0,3.971-8.574l6.983-1.079c1.3-.2,2.069-.972,1.721-1.721l-3.3-7.108C336.471,236.713,335.136,236.27,333.839,236.47Z" transform="translate(-258.915 -223.572)" fill="none"/>
    </clipPath>
  </defs>
  <g id="Grupo_29319" data-name="Grupo 29319" transform="translate(0 43.66)">
    <g id="Grupo_29318" data-name="Grupo 29318" clip-path="url(#clip-path)">
      <g id="Grupo_29317" data-name="Grupo 29317" transform="translate(-69.32 -52.129)">
        <g id="Grupo_29286" data-name="Grupo 29286" transform="translate(28.998 16.79)">
          <rect id="Rectángulo_6412" data-name="Rectángulo 6412" width="211.793" height="0.863" transform="matrix(0.866, -0.499, 0.499, 0.866, 0, 105.78)" fill="#150035"/>
        </g>
        <g id="Grupo_29287" data-name="Grupo 29287" transform="translate(31.342 18.05)">
          <rect id="Rectángulo_6413" data-name="Rectángulo 6413" width="211.793" height="0.863" transform="translate(0 105.763) rotate(-29.958)" fill="#150035"/>
        </g>
        <g id="Grupo_29288" data-name="Grupo 29288" transform="translate(33.481 19.37)">
          <rect id="Rectángulo_6414" data-name="Rectángulo 6414" width="211.793" height="0.863" transform="translate(0 105.793) rotate(-29.968)" fill="#150035"/>
        </g>
        <g id="Grupo_29289" data-name="Grupo 29289" transform="translate(35.876 20.596)">
          <rect id="Rectángulo_6415" data-name="Rectángulo 6415" width="211.794" height="0.863" transform="translate(0 105.794) rotate(-29.968)" fill="#150035"/>
        </g>
        <g id="Grupo_29290" data-name="Grupo 29290" transform="translate(37.857 21.962)">
          <rect id="Rectángulo_6416" data-name="Rectángulo 6416" width="211.794" height="0.863" transform="translate(0 105.811) rotate(-29.973)" fill="#150035"/>
        </g>
        <g id="Grupo_29291" data-name="Grupo 29291" transform="translate(40.201 23.223)">
          <rect id="Rectángulo_6417" data-name="Rectángulo 6417" width="211.794" height="0.863" transform="translate(0 105.793) rotate(-29.968)" fill="#150035"/>
        </g>
        <g id="Grupo_29292" data-name="Grupo 29292" transform="translate(42.323 24.572)">
          <rect id="Rectángulo_6418" data-name="Rectángulo 6418" width="211.794" height="0.863" transform="translate(0 105.764) rotate(-29.958)" fill="#150035"/>
        </g>
        <g id="Grupo_29293" data-name="Grupo 29293" transform="translate(44.718 25.798)">
          <rect id="Rectángulo_6419" data-name="Rectángulo 6419" width="211.794" height="0.863" transform="translate(0 105.764) rotate(-29.958)" fill="#150035"/>
        </g>
        <g id="Grupo_29294" data-name="Grupo 29294" transform="translate(46.849 27.133)">
          <rect id="Rectángulo_6420" data-name="Rectángulo 6420" width="211.794" height="0.863" transform="translate(0 105.763) rotate(-29.958)" fill="#150035"/>
        </g>
        <g id="Grupo_29295" data-name="Grupo 29295" transform="translate(49.242 28.373)">
          <rect id="Rectángulo_6421" data-name="Rectángulo 6421" width="211.794" height="0.863" transform="matrix(0.866, -0.499, 0.499, 0.866, 0, 105.781)" fill="#150035"/>
        </g>
        <g id="Grupo_29296" data-name="Grupo 29296" transform="translate(51.381 29.692)">
          <rect id="Rectángulo_6422" data-name="Rectángulo 6422" width="211.794" height="0.863" transform="translate(0 105.811) rotate(-29.973)" fill="#150035"/>
        </g>
        <g id="Grupo_29297" data-name="Grupo 29297" transform="translate(53.777 30.919)">
          <rect id="Rectángulo_6423" data-name="Rectángulo 6423" width="211.793" height="0.863" transform="translate(0 105.81) rotate(-29.973)" fill="#150035"/>
        </g>
        <g id="Grupo_29298" data-name="Grupo 29298" transform="translate(55.747 32.303)">
          <rect id="Rectángulo_6424" data-name="Rectángulo 6424" width="211.794" height="0.863" transform="translate(0 105.794) rotate(-29.968)" fill="#150035"/>
        </g>
        <g id="Grupo_29299" data-name="Grupo 29299" transform="translate(58.096 33.555)">
          <rect id="Rectángulo_6425" data-name="Rectángulo 6425" width="211.794" height="0.863" transform="translate(0 105.793) rotate(-29.968)" fill="#150035"/>
        </g>
        <g id="Grupo_29300" data-name="Grupo 29300" transform="translate(60.232 34.881)">
          <rect id="Rectángulo_6426" data-name="Rectángulo 6426" width="211.794" height="0.863" transform="translate(0 105.811) rotate(-29.973)" fill="#150035"/>
        </g>
        <g id="Grupo_29301" data-name="Grupo 29301" transform="translate(62.626 36.108)">
          <rect id="Rectángulo_6427" data-name="Rectángulo 6427" width="211.794" height="0.863" transform="matrix(0.866, -0.5, 0.5, 0.866, 0, 105.809)" fill="#150035"/>
        </g>
        <g id="Grupo_29302" data-name="Grupo 29302" transform="translate(64.757 37.443)">
          <rect id="Rectángulo_6428" data-name="Rectángulo 6428" width="211.794" height="0.863" transform="translate(0 105.809) rotate(-29.972)" fill="#150035"/>
        </g>
        <g id="Grupo_29303" data-name="Grupo 29303" transform="translate(0 0)">
          <rect id="Rectángulo_6429" data-name="Rectángulo 6429" width="211.794" height="0.863" transform="translate(0 105.793) rotate(-29.968)" fill="#150035"/>
        </g>
        <g id="Grupo_29304" data-name="Grupo 29304" transform="translate(1.972 1.381)">
          <rect id="Rectángulo_6430" data-name="Rectángulo 6430" width="211.794" height="0.863" transform="matrix(0.866, -0.499, 0.499, 0.866, 0, 105.781)" fill="#150035"/>
        </g>
        <g id="Grupo_29305" data-name="Grupo 29305" transform="translate(4.316 2.642)">
          <rect id="Rectángulo_6431" data-name="Rectángulo 6431" width="211.793" height="0.863" transform="translate(0 105.763) rotate(-29.958)" fill="#150035"/>
        </g>
        <g id="Grupo_29306" data-name="Grupo 29306" transform="translate(6.447 3.977)">
          <rect id="Rectángulo_6432" data-name="Rectángulo 6432" width="211.794" height="0.863" transform="translate(0 105.763) rotate(-29.958)" fill="#150035"/>
        </g>
        <g id="Grupo_29307" data-name="Grupo 29307" transform="translate(8.842 5.203)">
          <rect id="Rectángulo_6433" data-name="Rectángulo 6433" width="211.793" height="0.863" transform="translate(0 105.763) rotate(-29.958)" fill="#150035"/>
        </g>
        <g id="Grupo_29308" data-name="Grupo 29308" transform="translate(10.981 6.523)">
          <rect id="Rectángulo_6434" data-name="Rectángulo 6434" width="211.794" height="0.863" transform="translate(0 105.793) rotate(-29.968)" fill="#150035"/>
        </g>
        <g id="Grupo_29309" data-name="Grupo 29309" transform="translate(13.366 7.777)">
          <rect id="Rectángulo_6435" data-name="Rectángulo 6435" width="211.794" height="0.863" transform="matrix(0.866, -0.499, 0.499, 0.866, 0, 105.781)" fill="#150035"/>
        </g>
        <g id="Grupo_29310" data-name="Grupo 29310" transform="translate(15.505 9.097)">
          <rect id="Rectángulo_6436" data-name="Rectángulo 6436" width="211.794" height="0.863" transform="translate(0 105.811) rotate(-29.973)" fill="#150035"/>
        </g>
        <g id="Grupo_29311" data-name="Grupo 29311" transform="translate(17.9 10.324)">
          <rect id="Rectángulo_6437" data-name="Rectángulo 6437" width="211.794" height="0.863" transform="translate(0 105.811) rotate(-29.973)" fill="#150035"/>
        </g>
        <g id="Grupo_29312" data-name="Grupo 29312" transform="translate(19.87 11.708)">
          <rect id="Rectángulo_6438" data-name="Rectángulo 6438" width="211.794" height="0.863" transform="matrix(0.866, -0.5, 0.5, 0.866, 0, 105.792)" fill="#150035"/>
        </g>
        <g id="Grupo_29313" data-name="Grupo 29313" transform="translate(22.22 12.959)">
          <rect id="Rectángulo_6439" data-name="Rectángulo 6439" width="211.794" height="0.863" transform="translate(0 105.794) rotate(-29.968)" fill="#150035"/>
        </g>
        <g id="Grupo_29314" data-name="Grupo 29314" transform="translate(24.356 14.285)">
          <rect id="Rectángulo_6440" data-name="Rectángulo 6440" width="211.794" height="0.863" transform="translate(0 105.811) rotate(-29.973)" fill="#150035"/>
        </g>
        <g id="Grupo_29315" data-name="Grupo 29315" transform="translate(26.737 15.534)">
          <rect id="Rectángulo_6441" data-name="Rectángulo 6441" width="211.794" height="0.863" transform="translate(0 105.764) rotate(-29.958)" fill="#150035"/>
        </g>
        <g id="Grupo_29316" data-name="Grupo 29316" transform="translate(28.873 16.861)">
          <rect id="Rectángulo_6442" data-name="Rectángulo 6442" width="211.794" height="0.863" transform="matrix(0.866, -0.499, 0.499, 0.866, 0, 105.781)" fill="#150035"/>
        </g>
      </g>
    </g>
  </g>
  <g id="Grupo_29350" data-name="Grupo 29350" transform="translate(0.013)">
    <g id="Grupo_29327" data-name="Grupo 29327" transform="translate(0 29.529)">
      <g id="Grupo_29320" data-name="Grupo 29320" transform="translate(0.033 2.582)">
        <path id="Trazado_28261" data-name="Trazado 28261" d="M329.371,238.925l-.024-6-.049-.065-19.177-6.251-.047-.066.086-9.532a.07.07,0,0,0-.086-.068l-15.935,3.867h0l-16.688,3.109h-.021l-7.077-.98h-.013l-4.891.3-.065.07v7.672a1.32,1.32,0,0,0,.7,1.163l6.03,3.236-6.113,2.336-.781-.666-5.726-.932a.069.069,0,0,0-.079.07l.068,6.262a.714.714,0,0,0,0,.6l2.84,6.121a2.513,2.513,0,0,0,2.566.855l6-.93h0A21.328,21.328,0,0,0,275,252.128a29.17,29.17,0,0,0,3.522,1.713l.06,4.352a.719.719,0,0,0,0,.118h0c.021.523.624,1,1.543,1.139l10.6,1.641a2.513,2.513,0,0,0,2.566-.855l1.611-3.472a43.938,43.938,0,0,0,12.788-1.975h0l4.4,2.539a3.291,3.291,0,0,0,2.963,0l7.761-4.482a1.041,1.041,0,0,0,.614-.855l-.091-11,4.514-.706a1.769,1.769,0,0,0,1.518-.962h0A.712.712,0,0,0,329.371,238.925Z" transform="translate(-258.656 -216.133)" fill="#39a1ff"/>
        <path id="Trazado_28262" data-name="Trazado 28262" d="M291.567,262.191a4.391,4.391,0,0,1-.663-.05L280.3,260.5c-1.262-.2-2.135-.938-2.174-1.845a1.35,1.35,0,0,1,0-.245l-.058-3.759a29.673,29.673,0,0,1-3.156-1.564,22.421,22.421,0,0,1-3.981-2.887l-5.646.873a3.164,3.164,0,0,1-3.357-1.278l-2.842-6.123a1.454,1.454,0,0,1-.073-1.032l-.071-6.489.569-.505.4.052,5.914.961.6.512,4.172-1.593-4.59-2.463a2.064,2.064,0,0,1-1.09-1.823v-7.967l.405-.433.361-.087,5.007-.3.125.029,6.891.949,16.552-3.083,16.282-3.952.625.467.028.415-.083,9.041,18.937,6.173.282.394.049.3.024,5.912a1.419,1.419,0,0,1-.029.7,2.466,2.466,0,0,1-2.118,1.489l-3.879.608.088,10.355a1.772,1.772,0,0,1-.99,1.51l-7.759,4.48a4.036,4.036,0,0,1-3.712,0l-4.112-2.374a44.834,44.834,0,0,1-12.218,1.9l-1.414,3.048A2.912,2.912,0,0,1,291.567,262.191Zm-20.138-13.579.266.254a20.676,20.676,0,0,0,3.966,2.926,28.712,28.712,0,0,0,3.433,1.667l.457.186.066,4.846c.02.172.282.433.912.53l10.6,1.641a1.955,1.955,0,0,0,1.772-.431l1.81-3.9.471-.006a43.293,43.293,0,0,0,12.568-1.938l.316-.1,4.684,2.706a2.575,2.575,0,0,0,2.215,0l7.762-4.482c.178-.1.235-.193.241-.215l-.1-11.633,5.152-.805c.629-.1.893-.358.919-.442l-.034-.175-.024-5.507-18.952-6.178-.275-.4-.045-.3.078-8.662-15.2,3.683-16.808,3.109-.073-.006L270.6,224l-4.183.253v7.035a.574.574,0,0,0,.3.506l7.471,4.008-8.053,3.078-.961-.818-4.725-.768.062,5.611-.06.143,2.834,6.115a1.956,1.956,0,0,0,1.773.431Z" transform="translate(-258.944 -216.444)" fill="#150035"/>
      </g>
      <g id="Grupo_29321" data-name="Grupo 29321" transform="translate(4.424 22.356)">
        <path id="Trazado_28263" data-name="Trazado 28263" d="M263.538,229.412a.07.07,0,0,1-.081.068l-1.342-.219v13.2a3.576,3.576,0,0,0,.928-.018l5.729-.886V229.111h-5.235Z" transform="translate(-261.368 -228.362)" fill="#150035"/>
        <path id="Trazado_28264" data-name="Trazado 28264" d="M262.811,243.513a4.6,4.6,0,0,1-.491-.028l-.666-.073V228.668l1.423.233v-.253h6.729v13.832l-6.363.983A4.025,4.025,0,0,1,262.811,243.513Zm.337-13.087V242c.021,0,.044-.007.065-.011l5.1-.787V230.144h-3.846l-.444.4Z" transform="translate(-261.654 -228.649)" fill="#150035"/>
      </g>
      <g id="Grupo_29322" data-name="Grupo 29322" transform="translate(32.265 2.598)">
        <path id="Trazado_28265" data-name="Trazado 28265" d="M317.009,239.328a.713.713,0,0,0,0-.4l-.026-6-.047-.065-19.177-6.251-.047-.066.086-9.532a.069.069,0,0,0-.086-.068l-8.584,2.084-1.4,1.256L279.3,252.021v9.093a2.013,2.013,0,0,0,1.635-.87l1.61-3.472h0A43.93,43.93,0,0,0,295.33,254.8h0l4.4,2.539a3.291,3.291,0,0,0,2.963,0l7.761-4.482a1.041,1.041,0,0,0,.614-.855l-.04-11.017,4.464-.69a1.772,1.772,0,0,0,1.518-.962Z" transform="translate(-278.551 -216.145)" fill="#150035"/>
        <path id="Trazado_28266" data-name="Trazado 28266" d="M278.837,262.258l.024-10.12,8.482-31.941,1.711-1.531,9.117-2.212.632.457.028.421-.083,9.041,18.934,6.171.285.39.047.308.026,5.912a1.439,1.439,0,0,1-.029.7l0,0a2.464,2.464,0,0,1-2.118,1.486l-3.829.591.037,10.376a1.771,1.771,0,0,1-.988,1.505l-7.761,4.48a4.039,4.039,0,0,1-3.709,0l-4.114-2.375a44.8,44.8,0,0,1-12.218,1.9l-1.414,3.046a2.671,2.671,0,0,1-2.229,1.3Zm1.494-9.83v8a.519.519,0,0,0,.209-.191l1.81-3.9.471,0a43.257,43.257,0,0,0,12.568-1.939l.316-.1L300.389,257a2.575,2.575,0,0,0,2.215,0l7.761-4.482c.18-.1.237-.193.241-.216l-.044-11.651,5.1-.789a1.3,1.3,0,0,0,.909-.423l-.024-.191-.024-5.509-18.953-6.178-.274-.4-.047-.3.079-8.66-7.555,1.832-1.1.983Z" transform="translate(-278.837 -216.454)" fill="#150035"/>
      </g>
      <g id="Grupo_29323" data-name="Grupo 29323">
        <path id="Trazado_28267" data-name="Trazado 28267" d="M323.907,226.42l-6,.928a21.329,21.329,0,0,0-4.111-3.033,30.642,30.642,0,0,0-5.254-2.374l1.609-3.467c.3-.645-.363-1.308-1.481-1.481l-10.6-1.64a2.507,2.507,0,0,0-2.566.855l-1.611,3.472a43.886,43.886,0,0,0-12.788,1.975l-4.4-2.54a3.281,3.281,0,0,0-2.963,0l-7.761,4.482a.9.9,0,0,0,0,1.711l4.4,2.539a11.2,11.2,0,0,0-3.42,7.383l-6.014.93c-1.118.173-1.781.836-1.483,1.483l2.842,6.12a2.507,2.507,0,0,0,2.566.855l6-.928a21.278,21.278,0,0,0,4.111,3.033,30.592,30.592,0,0,0,5.254,2.374l-1.609,3.467c-.3.645.363,1.309,1.481,1.481l10.6,1.641a2.513,2.513,0,0,0,2.566-.855l1.61-3.472a43.928,43.928,0,0,0,12.787-1.975l4.4,2.539a3.276,3.276,0,0,0,2.963,0l7.761-4.482a.9.9,0,0,0,0-1.711l-4.4-2.539a11.2,11.2,0,0,0,3.42-7.383l6.014-.93c1.118-.173,1.781-.836,1.481-1.481l-2.84-6.121A2.507,2.507,0,0,0,323.907,226.42Z" transform="translate(-258.637 -214.564)" fill="#fff"/>
        <path id="Trazado_28268" data-name="Trazado 28268" d="M291.544,256.761a4.215,4.215,0,0,1-.664-.052l-10.6-1.64a2.648,2.648,0,0,1-2-1.2,1.464,1.464,0,0,1-.041-1.337l1.265-2.727a31.058,31.058,0,0,1-4.606-2.152,22.5,22.5,0,0,1-3.982-2.887l-5.645.873c-1.47.227-2.915-.322-3.359-1.28l-2.84-6.121a1.457,1.457,0,0,1,.041-1.333,2.643,2.643,0,0,1,2-1.2l5.421-.839a11.865,11.865,0,0,1,2.954-6.552l-3.6-2.077a1.637,1.637,0,0,1,0-3l7.761-4.482a4,4,0,0,1,3.71,0l4.114,2.375a44.885,44.885,0,0,1,12.218-1.9l1.414-3.046c.444-.958,1.892-1.507,3.359-1.28l10.6,1.64a2.644,2.644,0,0,1,2.006,1.2,1.474,1.474,0,0,1,.041,1.337l-1.265,2.725a30.893,30.893,0,0,1,4.606,2.153,22.46,22.46,0,0,1,3.981,2.886l5.645-.873c1.473-.219,2.915.324,3.359,1.28l2.842,6.121a1.465,1.465,0,0,1-.04,1.335,2.651,2.651,0,0,1-2,1.2l-5.423.838a11.838,11.838,0,0,1-2.954,6.552l3.6,2.077a1.636,1.636,0,0,1,0,3l-7.761,4.482a3.984,3.984,0,0,1-3.712,0l-4.112-2.374a44.832,44.832,0,0,1-12.218,1.9l-1.414,3.048A2.916,2.916,0,0,1,291.544,256.761Zm-20.138-13.579.266.254a20.676,20.676,0,0,0,3.966,2.926,30.048,30.048,0,0,0,5.126,2.314l.781.272-1.957,4.216c.018.07.287.331.917.428l10.6,1.641a1.963,1.963,0,0,0,1.774-.431l1.81-3.9.471-.006a43.346,43.346,0,0,0,12.568-1.938l.316-.1,4.682,2.706a2.545,2.545,0,0,0,2.216,0l7.761-4.482c.178-.1.235-.193.241-.217a.745.745,0,0,0-.241-.2l-5.222-3.015.66-.687a10.527,10.527,0,0,0,3.213-6.889l.019-.621L328,234.427c.63-.1.9-.361.922-.441l-2.843-6.11a1.964,1.964,0,0,0-1.774-.431l-6.371.984-.266-.254a20.672,20.672,0,0,0-3.968-2.926,30.1,30.1,0,0,0-5.125-2.314l-.779-.272,1.956-4.216c-.018-.068-.288-.331-.919-.428l-10.6-1.64a1.976,1.976,0,0,0-1.776.431l-1.808,3.9-.471,0a43.3,43.3,0,0,0-12.57,1.939l-.314.1-4.684-2.706a2.534,2.534,0,0,0-2.216,0l-7.761,4.48c-.177.1-.235.193-.241.217a.745.745,0,0,0,.241.2l5.224,3.015-.66.689a10.523,10.523,0,0,0-3.213,6.889l-.019.619-6.627,1.026c-.63.1-.9.36-.924.439l2.845,6.11a1.95,1.95,0,0,0,1.774.431Z" transform="translate(-258.923 -214.851)" fill="#150035"/>
      </g>
      <g id="Grupo_29324" data-name="Grupo 29324" transform="translate(19.177 38.757)">
        <rect id="Rectángulo_6443" data-name="Rectángulo 6443" width="1.494" height="6.404" fill="#150035"/>
      </g>
      <g id="Grupo_29325" data-name="Grupo 29325" transform="translate(54.25 38.243)">
        <rect id="Rectángulo_6444" data-name="Rectángulo 6444" width="1.495" height="5.526" fill="#39a1ff"/>
      </g>
      <g id="Grupo_29326" data-name="Grupo 29326" transform="translate(35.968 37.361)">
        <rect id="Rectángulo_6445" data-name="Rectángulo 6445" width="1.494" height="5.526" fill="#39a1ff"/>
      </g>
    </g>
    <g id="Grupo_29339" data-name="Grupo 29339" transform="translate(16.702 5.72)">
      <g id="Grupo_29328" data-name="Grupo 29328" transform="translate(0.041 1.365)">
        <path id="Trazado_28269" data-name="Trazado 28269" d="M333.026,215.765l0,0-6.411-1.492,0,0,0-7.1,0,0-12.876-.387,0,0,.045-4.994-.006,0-9.425,2.843h0l-11.458-.818,0,0-3.809-2.254-.006,0,0,4.7,0,0-6.272,1.8h0l-3.929-.655h0l-2.7-.279-.007,0,.036,5.4,0,0-3.271,1.308h0l-3.184,1.93,0,0,.041,21.487a.483.483,0,0,0,.008.39l1.658,3.571a1.711,1.711,0,0,0,1.751.583l3.112-.481s-.376,4.673.015,4.9l4.911,2.835a2.032,2.032,0,0,0,1.829,0l2.519-1.455a34.973,34.973,0,0,0,3.479,1.194l.016,2.171,0,.007c-.2.441.248.893,1.011,1.009l6.184.958a1.711,1.711,0,0,0,1.751-.583l.886-1.912a47.843,47.843,0,0,0,5.057,0l.886,1.912a1.71,1.71,0,0,0,1.75.583l6.186-.958c.69-.105,1.12-.486,1.047-.883v-2.31a35.491,35.491,0,0,0,3.454-1.188l2.521,1.455a2.032,2.032,0,0,0,1.829,0l4.911-2.835c.345-.2.117-4.882.117-4.882l3.01.465a1.711,1.711,0,0,0,1.751-.583l1.658-3.571C333.128,237.505,333.026,215.765,333.026,215.765Z" transform="translate(-268.97 -200.665)" fill="#39a1ff"/>
        <path id="Trazado_28270" data-name="Trazado 28270" d="M296.908,254.039a3.39,3.39,0,0,1-.484-.036l-6.184-.958a2.029,2.029,0,0,1-1.541-.938,1.246,1.246,0,0,1-.088-.99c-.015-.295-.021-.742-.026-1.439-.985-.3-1.868-.606-2.675-.924l-2.205,1.272a2.768,2.768,0,0,1-2.578,0l-4.909-2.835c-.368-.212-.749-.431-.457-4.661l-2.184.337a2.393,2.393,0,0,1-2.542-1.008l-1.658-3.571a1.231,1.231,0,0,1-.079-.812l-.041-21.779.337-.227,3.32-2,2.8-1.12-.037-5.648.758,0,2.779.282,3.809.634,5.574-1.6,0-4.59.792-.428.378.248,3.626,2.144,11.145.8,9.648-2.908.614.441,0,.386-.04,4.274,12.876.386,0,.729-.006,6.516,5.752,1.338h.663l0,.749c.1,21.907.062,21.993-.034,22.2l-1.656,3.568a2.386,2.386,0,0,1-2.542,1.008l-2.11-.326c.165,4.248-.159,4.436-.531,4.65l-4.909,2.835a2.763,2.763,0,0,1-2.578,0l-2.205-1.273c-.805.318-1.679.619-2.649.915v1.7a1.285,1.285,0,0,1-.237.888,2.118,2.118,0,0,1-1.444.787l-6.184.958A2.391,2.391,0,0,1,304.439,253l-.674-1.455c-1.372.058-2.753.058-4.123,0L298.965,253A2.2,2.2,0,0,1,296.908,254.039ZM304.694,250l1.1,2.369a1.344,1.344,0,0,0,.957.159l6.186-.956a1,1,0,0,0,.413-.143v-2.873l.538-.157a34.8,34.8,0,0,0,3.383-1.163l.339-.139,2.837,1.64a1.3,1.3,0,0,0,1.082,0l4.674-2.7a36.751,36.751,0,0,0-.019-4.337l-.044-.914,3.916.606a1.287,1.287,0,0,0,.969-.18l1.585-3.42c.034-1.356,0-12.984-.042-21.1l-5.757-1.338h-.663l0-.752.006-6.385-12.881-.386,0-.731.036-3.992-8.59,2.592-11.878-.906-2.74-1.619,0,3.864-.544.262-6.434,1.845-4.1-.682-1.833-.188.032,4.974-.476.3-3.215,1.286-2.772,1.679c0,2.991.039,21.068.039,21.069l-.015.175,1.61,3.472a1.336,1.336,0,0,0,.959.16l4.049-.627-.076.943a31.7,31.7,0,0,0-.126,4.324l4.679,2.7a1.305,1.305,0,0,0,1.084,0l2.837-1.638.339.139a34.772,34.772,0,0,0,3.406,1.168l.531.156,0,.556s.01,1.27.013,1.863l.139.139-.139.332a1.163,1.163,0,0,0,.377.12l6.186.956a1.274,1.274,0,0,0,.969-.177l1.09-2.351.5.026a47.209,47.209,0,0,0,4.976,0Z" transform="translate(-269.257 -200.998)" fill="#150035"/>
      </g>
      <g id="Grupo_29329" data-name="Grupo 29329" transform="translate(11.912 27.388)">
        <path id="Trazado_28271" data-name="Trazado 28271" d="M280.433,217.938l-3.347,2.839.365,1.965V239.08a1.909,1.909,0,0,0,1.024-.206l2.519-1.455-.044-16.314Z" transform="translate(-276.273 -216.514)" fill="#150035"/>
        <path id="Trazado_28272" data-name="Trazado 28272" d="M277.883,240.376c-.053,0-.105,0-.159,0l-.71-.036v-16.98l-.431-2.325,4.686-3.973.739,4.588.045,16.75-2.894,1.669A2.59,2.59,0,0,1,277.883,240.376Zm.327-18.764.3,1.675v15.429l2.048-1.183-.042-15.821-.293-1.8Z" transform="translate(-276.584 -217.059)" fill="#150035"/>
      </g>
      <g id="Grupo_29330" data-name="Grupo 29330" transform="translate(3.456 21.961)">
        <path id="Trazado_28273" data-name="Trazado 28273" d="M271.826,217.672l.042,16.1a.158.158,0,0,0,.181.156l2.8-.433a.156.156,0,0,0,.133-.157l-.133-11.432a.155.155,0,0,1,.117-.154l5.551-1.5a.156.156,0,0,0,.1-.23l-3.13-5.471a.157.157,0,0,0-.126-.079l-4.162-.3a.158.158,0,0,0-.16.1l-1.2,3.344A.2.2,0,0,0,271.826,217.672Z" transform="translate(-271.079 -213.424)" fill="#150035"/>
        <path id="Trazado_28274" data-name="Trazado 28274" d="M272.313,234.966a.9.9,0,0,1-.906-.9l-.042-16.241.053-.178,1.2-3.338a.91.91,0,0,1,.911-.6l4.17.3a.9.9,0,0,1,.715.446l3.135,5.48a.9.9,0,0,1-.549,1.324l-5.11,1.379.128,10.975a.905.905,0,0,1-.773.906l-2.79.433A.983.983,0,0,1,272.313,234.966Zm.546-16.907.041,15.316,1.614-.251-.126-10.92a.9.9,0,0,1,.676-.885l4.807-1.3-2.6-4.537-3.4-.248Z" transform="translate(-271.365 -213.71)" fill="#150035"/>
      </g>
      <g id="Grupo_29331" data-name="Grupo 29331" transform="translate(26.53 1.529)">
        <path id="Trazado_28275" data-name="Trazado 28275" d="M287.862,252.189l.886-1.912a47.842,47.842,0,0,0,5.057,0l.886,1.912a1.713,1.713,0,0,0,1.75.583l6.186-.958c.69-.105,1.12-.486,1.047-.885v-2.309a35.5,35.5,0,0,0,3.454-1.188l2.521,1.455a2.032,2.032,0,0,0,1.829,0l4.911-2.835c.345-.2.117-4.882.117-4.882l3.01.465a1.711,1.711,0,0,0,1.751-.583l1.658-3.571c.063-.138-.039-21.876-.039-21.876l0,0-6.411-1.492,0,0,0-7.1,0,0-12.876-.387,0,0,.045-4.994-.006,0-6.189,1.866-11.369,27.536v5.449l.042,16.316A1.714,1.714,0,0,0,287.862,252.189Z" transform="translate(-285.319 -200.785)" fill="#150035"/>
        <path id="Trazado_28276" data-name="Trazado 28276" d="M286.766,253.861a3.163,3.163,0,0,1-.483-.036l-.632-.1-.045-22.553,11.562-28,6.883-2.075.614.439,0,.387-.04,4.273,12.876.387,0,.731-.006,6.515,6,1.418.413.206,0,.467c.1,21.9.062,21.988-.034,22.192l-1.656,3.569a2.389,2.389,0,0,1-2.542,1.008l-2.11-.327c.165,4.25-.159,4.438-.531,4.652l-4.909,2.835a2.774,2.774,0,0,1-2.576,0l-2.208-1.275c-.8.318-1.677.619-2.647.915v1.7a1.281,1.281,0,0,1-.237.886,2.116,2.116,0,0,1-1.442.789l-6.186.956a2.385,2.385,0,0,1-2.544-1.006l-.674-1.457c-1.372.058-2.753.058-4.123,0l-.676,1.457A2.2,2.2,0,0,1,286.766,253.861Zm7.788-4.042,1.1,2.37a1.347,1.347,0,0,0,.957.159l6.188-.958a.966.966,0,0,0,.411-.143v-2.871l.538-.159a35.23,35.23,0,0,0,3.383-1.162l.339-.139,2.837,1.64a1.3,1.3,0,0,0,1.084,0l4.673-2.7a36.72,36.72,0,0,0-.019-4.336l-.044-.915,3.916.606a1.282,1.282,0,0,0,.969-.178l1.585-3.422c.034-1.354,0-12.983-.042-21.1l-5.757-1.34h-.663l0-.752.006-6.384-12.881-.386,0-.731.036-3.992-4.883,1.474L287.1,231.472l.042,20.852a.787.787,0,0,0,.332-.147l1.1-2.357.5.026a45.5,45.5,0,0,0,4.976,0Z" transform="translate(-285.606 -201.099)" fill="#150035"/>
      </g>
      <g id="Grupo_29332" data-name="Grupo 29332">
        <path id="Trazado_28277" data-name="Trazado 28277" d="M319.666,204.583l-2.426,1.4a35.8,35.8,0,0,0-4.375-1.465l.885-1.907c.2-.441-.248-.893-1.011-1.011l-6.184-.956a1.708,1.708,0,0,0-1.75.583l-.888,1.91a47.858,47.858,0,0,0-5.057,0l-.886-1.91a1.71,1.71,0,0,0-1.75-.583l-6.186.956c-.761.118-1.215.57-1.011,1.011l.886,1.907a35.821,35.821,0,0,0-4.376,1.465l-2.424-1.4a2.235,2.235,0,0,0-2.022,0l-4.527,2.613a.615.615,0,0,0,0,1.167l2.424,1.4a16.766,16.766,0,0,0-2.536,2.526l-3.3-.512a1.715,1.715,0,0,0-1.75.583l-1.657,3.571c-.2.441.248.893,1.009,1.011l3.312.512a9.19,9.19,0,0,0,0,2.92l-3.312.512c-.762.118-1.215.57-1.009,1.011l1.656,3.571a1.716,1.716,0,0,0,1.751.583l3.3-.512a16.759,16.759,0,0,0,2.534,2.528l-2.424,1.4a.616.616,0,0,0,0,1.167l4.529,2.613a2.231,2.231,0,0,0,2.02,0l2.424-1.4a36.033,36.033,0,0,0,4.378,1.463l-.886,1.907c-.2.441.248.893,1.011,1.011l6.186.956a1.71,1.71,0,0,0,1.75-.583l.886-1.91a47.85,47.85,0,0,0,5.057,0l.886,1.91a1.711,1.711,0,0,0,1.751.583l6.184-.956c.763-.118,1.215-.57,1.011-1.011l-.885-1.907a35.8,35.8,0,0,0,4.375-1.465l2.426,1.4a2.231,2.231,0,0,0,2.02,0l4.529-2.613a.616.616,0,0,0,0-1.167l-2.425-1.4a16.7,16.7,0,0,0,2.536-2.528l3.305.512a1.713,1.713,0,0,0,1.75-.583l1.658-3.571c.2-.441-.248-.893-1.011-1.011l-3.31-.512a9.284,9.284,0,0,0,0-2.92l3.31-.512c.763-.118,1.215-.57,1.011-1.011l-1.658-3.571a1.713,1.713,0,0,0-1.75-.583l-3.305.512a16.541,16.541,0,0,0-2.536-2.526l2.425-1.4a.616.616,0,0,0,0-1.167l-4.529-2.613A2.231,2.231,0,0,0,319.666,204.583Z" transform="translate(-268.946 -199.87)" fill="#fff"/>
        <path id="Trazado_28278" data-name="Trazado 28278" d="M296.878,238.248a3.386,3.386,0,0,1-.483-.036l-6.186-.958a2.035,2.035,0,0,1-1.539-.94,1.25,1.25,0,0,1-.034-1.124l.514-1.108c-1.121-.327-2.218-.7-3.27-1.118l-2.108,1.217a2.978,2.978,0,0,1-2.769,0l-4.527-2.615a1.351,1.351,0,0,1,0-2.459l1.512-.873a16.987,16.987,0,0,1-1.557-1.6l-2.882.447a2.4,2.4,0,0,1-2.542-1.008l-1.657-3.573a1.247,1.247,0,0,1,.034-1.123,2.03,2.03,0,0,1,1.541-.94l2.6-.4a10.192,10.192,0,0,1,0-1.664l-2.6-.4a2.035,2.035,0,0,1-1.541-.94,1.245,1.245,0,0,1-.032-1.124l1.658-3.571a2.39,2.39,0,0,1,2.54-1.008l2.884.447a17.141,17.141,0,0,1,1.555-1.6l-1.512-.873a1.351,1.351,0,0,1,0-2.46L281,204.221a2.968,2.968,0,0,1,2.769,0l2.109,1.217c1.052-.418,2.147-.792,3.27-1.118l-.515-1.11a1.25,1.25,0,0,1,.034-1.124,2.036,2.036,0,0,1,1.541-.938l6.184-.958a2.4,2.4,0,0,1,2.542,1.008l.676,1.455c1.371-.058,2.753-.058,4.125,0l.674-1.455a2.4,2.4,0,0,1,2.542-1.008l6.186.956a2.036,2.036,0,0,1,1.541.941,1.247,1.247,0,0,1,.033,1.123l-.515,1.11c1.123.326,2.22.7,3.27,1.118l2.11-1.217a2.978,2.978,0,0,1,2.769,0l4.527,2.615a1.351,1.351,0,0,1,0,2.46l-1.512.873a17.153,17.153,0,0,1,1.557,1.6l2.882-.447a2.4,2.4,0,0,1,2.542,1.008L334,215.9a1.25,1.25,0,0,1-.032,1.124,2.041,2.041,0,0,1-1.541.94l-2.6.4a10.179,10.179,0,0,1,0,1.664l2.6.4a2.036,2.036,0,0,1,1.541.94A1.247,1.247,0,0,1,334,222.5l-1.658,3.573a2.391,2.391,0,0,1-2.542,1.008l-2.882-.447a16.943,16.943,0,0,1-1.557,1.6l1.512.873a1.352,1.352,0,0,1,0,2.461l-4.527,2.615a2.978,2.978,0,0,1-2.769,0l-2.11-1.217c-1.055.416-2.15.792-3.27,1.118l.515,1.108a1.25,1.25,0,0,1-.033,1.124,2.038,2.038,0,0,1-1.541.94l-6.186.958a2.394,2.394,0,0,1-2.542-1.009l-.676-1.455c-1.372.058-2.754.058-4.123,0l-.676,1.455A2.2,2.2,0,0,1,296.878,238.248Zm7.788-4.044,1.1,2.37a1.343,1.343,0,0,0,.958.16l6.186-.958a1.129,1.129,0,0,0,.373-.117L312.1,233.1l.862-.227a35.512,35.512,0,0,0,4.284-1.434l.34-.139,2.741,1.583a1.5,1.5,0,0,0,1.274,0l4.41-2.545-3.245-1.884.841-.684a16.031,16.031,0,0,0,2.424-2.413l.269-.339,3.733.577a1.259,1.259,0,0,0,.969-.178l1.573-3.393a1.093,1.093,0,0,0-.373-.117l-4.054-.627.118-.742a8.463,8.463,0,0,0,0-2.683l-.118-.74,4.054-.629a1.128,1.128,0,0,0,.373-.117l-1.585-3.412a1.326,1.326,0,0,0-.958-.159l-3.733.578-.271-.34a15.94,15.94,0,0,0-2.422-2.413l-.841-.685,3.244-1.871-4.407-2.557a1.5,1.5,0,0,0-1.275,0l-2.741,1.583-.34-.139a35.229,35.229,0,0,0-4.284-1.432l-.862-.228,1.188-2.555a1.084,1.084,0,0,0-.374-.118l-6.184-.958a1.308,1.308,0,0,0-.969.18l-1.089,2.351-.5-.028a46.385,46.385,0,0,0-4.977,0l-.506.028-1.1-2.37a1.35,1.35,0,0,0-.958-.16l-6.184.958a1.149,1.149,0,0,0-.374.118l1.188,2.555-.862.228a35.326,35.326,0,0,0-4.284,1.432l-.339.139-2.743-1.583a1.5,1.5,0,0,0-1.273,0l-4.409,2.544,3.244,1.884-.841.685a16.013,16.013,0,0,0-2.422,2.413l-.271.34-3.733-.578a1.284,1.284,0,0,0-.969.178l-1.572,3.393a1.127,1.127,0,0,0,.373.117l4.052.629-.118.74a8.567,8.567,0,0,0,0,2.683l.118.742-4.052.627a1.092,1.092,0,0,0-.373.117l1.583,3.412a1.364,1.364,0,0,0,.959.159l3.731-.577.271.339a16,16,0,0,0,2.421,2.413l.842.684-3.242,1.873,4.407,2.557a1.491,1.491,0,0,0,1.273,0l2.74-1.583.34.139a35.528,35.528,0,0,0,4.285,1.434l.86.227-1.186,2.557a1.142,1.142,0,0,0,.373.117l6.186.958a1.294,1.294,0,0,0,.969-.178l1.089-2.353.506.028a46.354,46.354,0,0,0,4.976,0Z" transform="translate(-269.232 -200.155)" fill="#150035"/>
      </g>
      <g id="Grupo_29333" data-name="Grupo 29333" transform="translate(19.381 35.882)">
        <rect id="Rectángulo_6446" data-name="Rectángulo 6446" width="15.776" height="1.494" transform="translate(0 15.776) rotate(-89.913)" fill="#150035"/>
      </g>
      <g id="Grupo_29334" data-name="Grupo 29334" transform="translate(35.846 38.127)">
        <rect id="Rectángulo_6447" data-name="Rectángulo 6447" width="1.495" height="14.867" fill="#39a1ff"/>
      </g>
      <g id="Grupo_29335" data-name="Grupo 29335" transform="translate(50.618 34.488)">
        <rect id="Rectángulo_6448" data-name="Rectángulo 6448" width="1.495" height="14.867" fill="#39a1ff"/>
      </g>
      <g id="Grupo_29336" data-name="Grupo 29336" transform="translate(60.587 27.054)">
        <rect id="Rectángulo_6449" data-name="Rectángulo 6449" width="1.495" height="14.869" fill="#39a1ff"/>
      </g>
      <g id="Grupo_29337" data-name="Grupo 29337" transform="translate(65.04 17.397)">
        <rect id="Rectángulo_6450" data-name="Rectángulo 6450" width="1.495" height="8.23" fill="#39a1ff"/>
      </g>
      <g id="Grupo_29338" data-name="Grupo 29338" transform="translate(43.844 47.626)">
        <path id="Trazado_28279" data-name="Trazado 28279" d="M297.576,234.648l-1.284-.766.292-.489v-2.657l3.926-1.185,2.95,1.26h1.677v1.5h-1.983l-2.732-1.167-2.343.707v1.961Z" transform="translate(-296.292 -229.55)" fill="#39a1ff"/>
      </g>
    </g>
    <g id="Grupo_29344" data-name="Grupo 29344" transform="translate(29.072 2.518)">
      <g id="Grupo_29340" data-name="Grupo 29340" transform="translate(0.01 7.225)">
        <path id="Trazado_28280" data-name="Trazado 28280" d="M277.4,206.642l.126,9.3c-.254,2.944,1.529,5.949,5.4,8.239,7.327,4.329,19.274,4.451,26.687.272,3.913-2.208,5.758-5.172,5.57-8.116l-.071-8.809a.189.189,0,0,0-.157-.185l-25.057-4.161a.187.187,0,0,0-.079,0l-12.281,3.271A.187.187,0,0,0,277.4,206.642Z" transform="translate(-276.543 -202.304)" fill="#39a1ff"/>
        <path id="Trazado_28281" data-name="Trazado 28281" d="M296.914,228.686a28.344,28.344,0,0,1-14.088-3.43c-3.994-2.359-6.116-5.659-5.823-9.055l-.13-9.214a1.048,1.048,0,0,1,.779-1.027l12.464-3.32.264.028,25.053,4.159a1.044,1.044,0,0,1,.878,1.035l.071,8.8c.215,3.347-1.975,6.6-6.011,8.874A27.978,27.978,0,0,1,296.914,228.686Zm-18.309-21.2.118,8.774c-.241,2.832,1.529,5.468,4.98,7.508,7.079,4.183,18.662,4.3,25.823.262,3.487-1.965,5.309-4.563,5.134-7.31l-.07-8.289L290.24,204.39Z" transform="translate(-276.873 -202.639)" fill="#150035"/>
      </g>
      <g id="Grupo_29341" data-name="Grupo 29341" transform="translate(0.762 10.105)">
        <path id="Trazado_28282" data-name="Trazado 28282" d="M280.944,204.416l-3.467.924a.189.189,0,0,0-.139.185l.125,9.3c-.206,2.4.962,4.827,3.482,6.886Z" transform="translate(-277.337 -204.416)" fill="#150035"/>
      </g>
      <g id="Grupo_29342" data-name="Grupo 29342" transform="translate(22.543 9.732)">
        <path id="Trazado_28283" data-name="Trazado 28283" d="M306.668,206.824l-15.888-2.638v22.7a25.754,25.754,0,0,0,10.546-2.949c3.913-2.207,5.758-5.172,5.57-8.116l-.071-8.809A.192.192,0,0,0,306.668,206.824Z" transform="translate(-290.78 -204.186)" fill="#150035"/>
      </g>
      <g id="Grupo_29343" data-name="Grupo 29343">
        <path id="Trazado_28284" data-name="Trazado 28284" d="M283.005,201.757c7.411-4.18,19.358-4.059,26.685.271s7.255,11.228-.157,15.408-19.36,4.057-26.685-.272S275.592,205.936,283.005,201.757Z" transform="translate(-276.537 -197.857)" fill="#fff"/>
        <path id="Trazado_28285" data-name="Trazado 28285" d="M296.825,221.661a28.338,28.338,0,0,1-14.086-3.432c-3.819-2.257-5.9-5.279-5.872-8.511s2.179-6.21,6.043-8.39c7.641-4.3,20-4.182,27.549.282,3.819,2.255,5.9,5.277,5.872,8.508s-2.179,6.212-6.045,8.391A28,28,0,0,1,296.825,221.661Zm-.449-21.784a26.25,26.25,0,0,0-12.618,2.954c-3.305,1.863-5.139,4.316-5.167,6.905s1.758,5.079,5.026,7.009c7.079,4.183,18.665,4.3,25.823.262,3.305-1.865,5.139-4.316,5.165-6.905s-1.758-5.078-5.024-7.009A26.575,26.575,0,0,0,296.376,199.877Z" transform="translate(-276.867 -198.179)" fill="#150035"/>
      </g>
    </g>
    <g id="Grupo_29349" data-name="Grupo 29349" transform="translate(37.818)">
      <g id="Grupo_29345" data-name="Grupo 29345" transform="translate(0.005 3.997)">
        <path id="Trazado_28286" data-name="Trazado 28286" d="M282.8,201.554l.07,5.162c-.141,1.633.851,3.3,3,4.572a16.371,16.371,0,0,0,14.812.151c2.173-1.225,3.2-2.869,3.093-4.5l-.04-4.89a.1.1,0,0,0-.088-.1l-13.908-2.309a.133.133,0,0,0-.044,0l-6.816,1.816A.108.108,0,0,0,282.8,201.554Z" transform="translate(-281.938 -198.756)" fill="#39a1ff"/>
        <path id="Trazado_28287" data-name="Trazado 28287" d="M293.775,214.319a16.111,16.111,0,0,1-8.014-1.952c-2.349-1.387-3.6-3.352-3.42-5.389l-.073-5.075a.962.962,0,0,1,.719-.948l6.99-1.863.224.026,13.918,2.31a.966.966,0,0,1,.807.935l.041,4.9c.128,1.988-1.158,3.924-3.53,5.262A15.931,15.931,0,0,1,293.775,214.319ZM284,202.469l.062,4.572c-.12,1.455.8,2.788,2.576,3.842a15.445,15.445,0,0,0,13.95.143c1.8-1.016,2.743-2.328,2.656-3.7l-.036-4.3-13.121-2.179Z" transform="translate(-282.268 -199.092)" fill="#150035"/>
      </g>
      <g id="Grupo_29346" data-name="Grupo 29346" transform="translate(0.805 5.986)">
        <path id="Trazado_28288" data-name="Trazado 28288" d="M284.765,200.32l-1.925.514a.1.1,0,0,0-.078.1l.07,5.16a4.5,4.5,0,0,0,1.933,3.822Z" transform="translate(-282.762 -200.32)" fill="#150035"/>
      </g>
      <g id="Grupo_29347" data-name="Grupo 29347" transform="translate(12.896 5.781)">
        <path id="Trazado_28289" data-name="Trazado 28289" d="M299.041,201.656l-8.817-1.463v12.6a14.3,14.3,0,0,0,5.852-1.638c2.173-1.225,3.2-2.869,3.093-4.5l-.04-4.89A.1.1,0,0,0,299.041,201.656Z" transform="translate(-290.224 -200.193)" fill="#150035"/>
      </g>
      <g id="Grupo_29348" data-name="Grupo 29348">
        <path id="Trazado_28290" data-name="Trazado 28290" d="M285.908,198.845A16.366,16.366,0,0,1,300.72,199c4.065,2.4,4.026,6.231-.088,8.552a16.376,16.376,0,0,1-14.812-.151C281.755,204.992,281.794,201.163,285.908,198.845Z" transform="translate(-281.935 -196.301)" fill="#fff"/>
        <path id="Trazado_28291" data-name="Trazado 28291" d="M293.727,210.413a16.138,16.138,0,0,1-8.015-1.951c-2.242-1.325-3.466-3.122-3.446-5.058s1.28-3.707,3.548-4.987h0a17.352,17.352,0,0,1,15.674.16c2.242,1.325,3.466,3.121,3.446,5.057s-1.28,3.707-3.55,4.987A15.925,15.925,0,0,1,293.727,210.413Zm-7.066-10.494c-1.709.964-2.659,2.208-2.672,3.5s.911,2.557,2.6,3.556a15.445,15.445,0,0,0,13.95.141c1.709-.964,2.659-2.208,2.672-3.5s-.911-2.555-2.6-3.555a15.435,15.435,0,0,0-13.95-.143Z" transform="translate(-282.265 -196.625)" fill="#150035"/>
      </g>
    </g>
  </g>
</svg>
